<svg id="visual" viewBox="0 0 900 300" width="900" height="300" xmlns="http://www.w3.org/2000/svg" xmlns:xlink="http://www.w3.org/1999/xlink" version="1.1"><rect x="0" y="0" width="900" height="300" fill="#ffffff"></rect><path d="M0 250L15 242.8C30 235.7 60 221.3 90 217.5C120 213.7 150 220.3 180 225.8C210 231.3 240 235.7 270 236.8C300 238 330 236 360 225.7C390 215.3 420 196.7 450 191C480 185.3 510 192.7 540 196C570 199.3 600 198.7 630 201.5C660 204.3 690 210.7 720 213C750 215.3 780 213.7 810 209.5C840 205.3 870 198.7 885 195.3L900 192L900 0L885 0C870 0 840 0 810 0C780 0 750 0 720 0C690 0 660 0 630 0C600 0 570 0 540 0C510 0 480 0 450 0C420 0 390 0 360 0C330 0 300 0 270 0C240 0 210 0 180 0C150 0 120 0 90 0C60 0 30 0 15 0L0 0Z" fill="#c09bd0"></path><path d="M0 179L15 171.7C30 164.3 60 149.7 90 154.5C120 159.3 150 183.7 180 184.8C210 186 240 164 270 153.5C300 143 330 144 360 156.3C390 168.7 420 192.3 450 190.7C480 189 510 162 540 155C570 148 600 161 630 167.7C660 174.3 690 174.7 720 171.2C750 167.7 780 160.3 810 166C840 171.7 870 190.3 885 199.7L900 209L900 0L885 0C870 0 840 0 810 0C780 0 750 0 720 0C690 0 660 0 630 0C600 0 570 0 540 0C510 0 480 0 450 0C420 0 390 0 360 0C330 0 300 0 270 0C240 0 210 0 180 0C150 0 120 0 90 0C60 0 30 0 15 0L0 0Z" fill="#cf8ec7"></path><path d="M0 141L15 147.5C30 154 60 167 90 173.2C120 179.3 150 178.7 180 171.8C210 165 240 152 270 152C300 152 330 165 360 164.7C390 164.3 420 150.7 450 145.3C480 140 510 143 540 148.7C570 154.3 600 162.7 630 157.3C660 152 690 133 720 130C750 127 780 140 810 145.8C840 151.7 870 150.3 885 149.7L900 149L900 0L885 0C870 0 840 0 810 0C780 0 750 0 720 0C690 0 660 0 630 0C600 0 570 0 540 0C510 0 480 0 450 0C420 0 390 0 360 0C330 0 300 0 270 0C240 0 210 0 180 0C150 0 120 0 90 0C60 0 30 0 15 0L0 0Z" fill="#dd80b7"></path><path d="M0 87L15 89C30 91 60 95 90 96C120 97 150 95 180 98.7C210 102.3 240 111.7 270 114.8C300 118 330 115 360 117.2C390 119.3 420 126.7 450 128.5C480 130.3 510 126.7 540 123C570 119.3 600 115.7 630 113.7C660 111.7 690 111.3 720 112.8C750 114.3 780 117.7 810 121C840 124.3 870 127.7 885 129.3L900 131L900 0L885 0C870 0 840 0 810 0C780 0 750 0 720 0C690 0 660 0 630 0C600 0 570 0 540 0C510 0 480 0 450 0C420 0 390 0 360 0C330 0 300 0 270 0C240 0 210 0 180 0C150 0 120 0 90 0C60 0 30 0 15 0L0 0Z" fill="#ea71a1"></path><path d="M0 109L15 100.8C30 92.7 60 76.3 90 71.2C120 66 150 72 180 72.5C210 73 240 68 270 70.3C300 72.7 330 82.3 360 82.8C390 83.3 420 74.7 450 73.2C480 71.7 510 77.3 540 83.3C570 89.3 600 95.7 630 101.8C660 108 690 114 720 111.8C750 109.7 780 99.3 810 95.3C840 91.3 870 93.7 885 94.8L900 96L900 0L885 0C870 0 840 0 810 0C780 0 750 0 720 0C690 0 660 0 630 0C600 0 570 0 540 0C510 0 480 0 450 0C420 0 390 0 360 0C330 0 300 0 270 0C240 0 210 0 180 0C150 0 120 0 90 0C60 0 30 0 15 0L0 0Z" fill="#f36386"></path><path d="M0 86L15 84.3C30 82.7 60 79.3 90 71.3C120 63.3 150 50.7 180 44C210 37.3 240 36.7 270 45C300 53.3 330 70.7 360 78.2C390 85.7 420 83.3 450 82.2C480 81 510 81 540 81C570 81 600 81 630 77.3C660 73.7 690 66.3 720 58.8C750 51.3 780 43.7 810 48.2C840 52.7 870 69.3 885 77.7L900 86L900 0L885 0C870 0 840 0 810 0C780 0 750 0 720 0C690 0 660 0 630 0C600 0 570 0 540 0C510 0 480 0 450 0C420 0 390 0 360 0C330 0 300 0 270 0C240 0 210 0 180 0C150 0 120 0 90 0C60 0 30 0 15 0L0 0Z" fill="#f55967"></path><path d="M0 37L15 33.5C30 30 60 23 90 21.8C120 20.7 150 25.3 180 32C210 38.7 240 47.3 270 49C300 50.7 330 45.3 360 37.8C390 30.3 420 20.7 450 22.5C480 24.3 510 37.7 540 39.7C570 41.7 600 32.3 630 28C660 23.7 690 24.3 720 24C750 23.7 780 22.3 810 20.5C840 18.7 870 16.3 885 15.2L900 14L900 0L885 0C870 0 840 0 810 0C780 0 750 0 720 0C690 0 660 0 630 0C600 0 570 0 540 0C510 0 480 0 450 0C420 0 390 0 360 0C330 0 300 0 270 0C240 0 210 0 180 0C150 0 120 0 90 0C60 0 30 0 15 0L0 0Z" fill="#f15545"></path></svg>